<?xml version="1.0" encoding="UTF-8"?>
<svg version="1.1" xmlns="http://www.w3.org/2000/svg" width="500" height="250">
<path d="M0 0 C165 0 330 0 500 0 C500 82.5 500 165 500 250 C335 250 170 250 0 250 C0 167.5 0 85 0 0 Z " fill="#222557" transform="translate(0,0)"/>
<path d="M0 0 C1.20030098 -0.00744736 1.20030098 -0.00744736 2.42485046 -0.01504517 C5.07979179 -0.02968396 7.73467333 -0.03647249 10.38964844 -0.04199219 C12.23329673 -0.0477433 14.07694501 -0.05350104 15.92059326 -0.05926514 C19.79097777 -0.06978075 23.66134149 -0.07561939 27.53173828 -0.07910156 C32.48604318 -0.08458008 37.44007238 -0.10859197 42.39429092 -0.13707352 C46.20504553 -0.15572024 50.01573409 -0.16090663 53.82653046 -0.16243744 C55.6525396 -0.16546113 57.47854767 -0.17348009 59.30451202 -0.18662262 C61.86337567 -0.20372176 64.42157078 -0.20179327 66.98046875 -0.1953125 C67.7318663 -0.20452728 68.48326385 -0.21374207 69.25743103 -0.22323608 C73.99810124 -0.18571967 77.29522968 0.51084315 81.24902344 3.16113281 C84.01668171 6.66258905 84.62613654 9.28779532 84.63720703 13.69824219 C84.64666351 14.78286743 84.65612 15.86749268 84.66586304 16.98498535 C84.65979034 18.14655151 84.65371765 19.30811768 84.64746094 20.50488281 C84.65033112 21.70673218 84.65320129 22.90858154 84.65615845 24.14685059 C84.65819795 26.68530753 84.65267613 29.22378024 84.64013672 31.76220703 C84.6240825 35.64684199 84.63999039 39.53043645 84.65917969 43.41503906 C84.65719724 45.88248927 84.65335353 48.34993884 84.64746094 50.81738281 C84.65353363 51.97894897 84.65960632 53.14051514 84.66586304 54.33728027 C84.65167831 55.96421814 84.65167831 55.96421814 84.63720703 57.62402344 C84.63482025 58.57490845 84.63243347 59.52579346 84.62997437 60.50549316 C83.9617664 65.16362478 82.06341957 67.48527187 78.4821167 70.45736694 C74.76944518 72.41385954 72.68422646 72.58467615 68.51953125 72.42138672 C67.87457199 72.40281113 67.22961273 72.38423553 66.56510925 72.36509705 C65.17191673 72.32439746 63.77894519 72.27545515 62.38629913 72.21907425 C59.39543373 72.10763805 56.40486924 72.06861921 53.41238022 72.02438927 C47.85799951 71.94096816 42.30763891 71.82830985 36.75732422 71.59570312 C17.38815336 70.15951349 17.38815336 70.15951349 0.17285156 77.296875 C-3.77400218 81.05599527 -7.14676138 85.13415918 -10.20391846 89.64413452 C-10.71444763 90.14474396 -11.22497681 90.64535339 -11.75097656 91.16113281 C-13.94403076 90.89810181 -13.94403076 90.89810181 -15.75097656 90.16113281 C-15.89017646 79.59072612 -15.99669893 69.0205385 -16.06184959 58.4494009 C-16.09312364 53.54040014 -16.13552435 48.63202779 -16.20361328 43.72338867 C-16.26894645 38.98359592 -16.30471214 34.24440645 -16.32024002 29.50419807 C-16.3313014 27.69847177 -16.35290247 25.8927774 -16.3853569 24.08730888 C-16.42910824 21.55187283 -16.43490324 19.01890887 -16.43212891 16.4831543 C-16.45370056 15.74156067 -16.47527222 14.99996704 -16.49749756 14.23590088 C-16.4353619 8.9656366 -14.81728487 6.32076915 -11.2348423 2.49746799 C-7.87274599 -0.53035823 -4.27958411 0.00629889 0 0 Z " fill="#232658" transform="translate(318.7509765625,33.8388671875)"/>
<path d="M0 0 C7.92 0 15.84 0 24 0 C24.33 15.84 24.66 31.68 25 48 C28.2175 44.205 31.435 40.41 34.75 36.5 C41.03498118 29.68249551 46.18305297 24.54171973 55.76171875 23.47265625 C62.57212706 23.31455442 69.28250326 23.88822566 76 25 C74.40914564 29.00755884 71.58215781 31.59120618 68.51953125 34.5 C67.42731789 35.56207186 66.3355336 36.62458512 65.24414062 37.6875 C63.52396909 39.35172098 61.80020443 41.01173269 60.06860352 42.6640625 C58.39532605 44.26502175 56.73791456 45.8810835 55.08203125 47.5 C54.55817337 47.99177734 54.03431549 48.48355469 53.49458313 48.99023438 C51.87380538 50.53022527 51.87380538 50.53022527 50 53 C50.0984613 57.2468038 53.29118573 60.21143305 55.875 63.375 C56.87522144 64.62221828 57.87521471 65.86961957 58.875 67.1171875 C59.390625 67.75624023 59.90625 68.39529297 60.4375 69.05371094 C62.94655928 72.1790579 65.40818542 75.3412844 67.875 78.5 C70.4654982 81.81625567 73.07361188 85.0925294 75.8203125 88.28125 C78 91 78 91 78 93 C53.19305246 95.21555818 53.19305246 95.21555818 46.64355469 91.75488281 C43.13894324 88.67059754 40.94003221 84.91071412 38.89648438 80.75292969 C37.64935241 78.31436554 36.02107053 76.25686503 34.3125 74.125 C33.549375 73.09375 32.78625 72.0625 32 71 C29.10693729 72.29689018 27.02687666 73.54469516 25 76 C24.5005539 78.01792826 24.5005539 78.01792826 24.48828125 80.23046875 C24.45516846 80.95387451 24.42205566 81.67728027 24.38793945 82.42260742 C24.35059692 83.79122925 24.35059692 83.79122925 24.3125 85.1875 C24.209375 88.095625 24.10625 91.00375 24 94 C16.08 94 8.16 94 0 94 C0 62.98 0 31.96 0 0 Z " fill="#D0E6FC" transform="translate(272,96)"/>
<path d="M0 0 C5.48573336 4.5028728 8.39269109 10.40343133 9.5625 17.3125 C9.64420868 18.90761805 9.6804254 20.50557985 9.67602539 22.1027832 C9.67591209 23.48364861 9.67591209 23.48364861 9.67579651 24.89241028 C9.67063522 25.8727977 9.66547394 26.85318512 9.66015625 27.86328125 C9.6587413 28.87722458 9.65732635 29.89116791 9.65586853 30.93583679 C9.65028328 34.16558821 9.63773345 37.39526962 9.625 40.625 C9.6199831 42.81835837 9.61542052 45.01171783 9.61132812 47.20507812 C9.60117075 52.57426725 9.58159236 57.9433055 9.5625 63.3125 C2.3025 63.3125 -4.9575 63.3125 -12.4375 63.3125 C-12.9325 59.8475 -12.9325 59.8475 -13.4375 56.3125 C-14.324375 57.09625 -15.21125 57.88 -16.125 58.6875 C-21.35960846 63.31343306 -26.5449273 63.67642639 -33.25 63.6875 C-34.01892578 63.71199219 -34.78785156 63.73648438 -35.58007812 63.76171875 C-42.29430727 63.79571485 -47.43389924 61.96273597 -52.49609375 57.49609375 C-53.17865234 56.63177734 -53.17865234 56.63177734 -53.875 55.75 C-54.34808594 55.17121094 -54.82117188 54.59242188 -55.30859375 53.99609375 C-58.87487868 48.67751657 -58.23783774 41.38565111 -57.4375 35.3125 C-54.57102757 29.42679643 -49.65050801 26.41984089 -43.74609375 24.00390625 C-37.37587752 22.09607499 -31.14913861 22.1919876 -24.5625 22.25 C-23.58796875 22.25451172 -22.6134375 22.25902344 -21.609375 22.26367188 C-19.21868566 22.27539094 -16.8281256 22.29179781 -14.4375 22.3125 C-16.02779807 17.28168621 -16.02779807 17.28168621 -19.734375 13.89453125 C-27.4636569 12.23027836 -35.22818288 12.6268714 -42.53515625 15.65625 C-44.4375 16.3125 -44.4375 16.3125 -48.4375 16.3125 C-50.7475 11.3625 -53.0575 6.4125 -55.4375 1.3125 C-38.30618321 -8.00895178 -17.12786845 -11.42919103 0 0 Z " fill="#CFE5FB" transform="translate(229.4375,126.6875)"/>
<path d="M0 0 C26.07 0 52.14 0 79 0 C79 6.27 79 12.54 79 19 C70.09 19 61.18 19 52 19 C52 41.77 52 64.54 52 88 C43.75 88 35.5 88 27 88 C27 65.23 27 42.46 27 19 C18.09 19 9.18 19 0 19 C0 12.73 0 6.46 0 0 Z " fill="#D1E7FD" transform="translate(99,102)"/>
<path d="M0 0 C7.59 0 15.18 0 23 0 C23 31.02 23 62.04 23 94 C15.41 94 7.82 94 0 94 C0 62.98 0 31.96 0 0 Z " fill="#D1E7FD" transform="translate(244,96)"/>
<path d="M0 0 C1.20030098 -0.00744736 1.20030098 -0.00744736 2.42485046 -0.01504517 C5.07979179 -0.02968396 7.73467333 -0.03647249 10.38964844 -0.04199219 C12.23329673 -0.0477433 14.07694501 -0.05350104 15.92059326 -0.05926514 C19.79097777 -0.06978075 23.66134149 -0.07561939 27.53173828 -0.07910156 C32.48604318 -0.08458008 37.44007238 -0.10859197 42.39429092 -0.13707352 C46.20504553 -0.15572024 50.01573409 -0.16090663 53.82653046 -0.16243744 C55.6525396 -0.16546113 57.47854767 -0.17348009 59.30451202 -0.18662262 C61.86337567 -0.20372176 64.42157078 -0.20179327 66.98046875 -0.1953125 C67.7318663 -0.20452728 68.48326385 -0.21374207 69.25743103 -0.22323608 C73.99810124 -0.18571967 77.29522968 0.51084315 81.24902344 3.16113281 C84.01668171 6.66258905 84.62613654 9.28779532 84.63720703 13.69824219 C84.64666351 14.78286743 84.65612 15.86749268 84.66586304 16.98498535 C84.65979034 18.14655151 84.65371765 19.30811768 84.64746094 20.50488281 C84.65033112 21.70673218 84.65320129 22.90858154 84.65615845 24.14685059 C84.65819795 26.68530753 84.65267613 29.22378024 84.64013672 31.76220703 C84.6240825 35.64684199 84.63999039 39.53043645 84.65917969 43.41503906 C84.65719724 45.88248927 84.65335353 48.34993884 84.64746094 50.81738281 C84.65353363 51.97894897 84.65960632 53.14051514 84.66586304 54.33728027 C84.65167831 55.96421814 84.65167831 55.96421814 84.63720703 57.62402344 C84.63482025 58.57490845 84.63243347 59.52579346 84.62997437 60.50549316 C83.9617664 65.16362478 82.06341957 67.48527187 78.4821167 70.45736694 C74.76944518 72.41385954 72.68422646 72.58467615 68.51953125 72.42138672 C67.87457199 72.40281113 67.22961273 72.38423553 66.56510925 72.36509705 C65.17191673 72.32439746 63.77894519 72.27545515 62.38629913 72.21907425 C59.39543373 72.10763805 56.40486924 72.06861921 53.41238022 72.02438927 C47.85799951 71.94096816 42.30763891 71.82830985 36.75732422 71.59570312 C17.38815336 70.15951349 17.38815336 70.15951349 0.17285156 77.296875 C-3.77400218 81.05599527 -7.14676138 85.13415918 -10.20391846 89.64413452 C-10.71444763 90.14474396 -11.22497681 90.64535339 -11.75097656 91.16113281 C-13.94403076 90.89810181 -13.94403076 90.89810181 -15.75097656 90.16113281 C-15.89017646 79.59072612 -15.99669893 69.0205385 -16.06184959 58.4494009 C-16.09312364 53.54040014 -16.13552435 48.63202779 -16.20361328 43.72338867 C-16.26894645 38.98359592 -16.30471214 34.24440645 -16.32024002 29.50419807 C-16.3313014 27.69847177 -16.35290247 25.8927774 -16.3853569 24.08730888 C-16.42910824 21.55187283 -16.43490324 19.01890887 -16.43212891 16.4831543 C-16.45370056 15.74156067 -16.47527222 14.99996704 -16.49749756 14.23590088 C-16.4353619 8.9656366 -14.81728487 6.32076915 -11.2348423 2.49746799 C-7.87274599 -0.53035823 -4.27958411 0.00629889 0 0 Z M-9.21746826 6.74528503 C-11.3244936 10.06463614 -11.23212123 12.3951554 -11.20507812 16.31640625 C-11.20566223 17.02900101 -11.20624634 17.74159576 -11.20684814 18.4757843 C-11.20406765 20.82452591 -11.17297979 23.17198872 -11.14160156 25.52050781 C-11.13413899 27.15146186 -11.12844613 28.78242489 -11.12445068 30.41339111 C-11.10919549 34.70111958 -11.06991511 38.988304 -11.02563477 43.27581787 C-10.98467933 47.65287924 -10.96643911 52.03002872 -10.94628906 56.40722656 C-10.90342033 64.99211134 -10.83517092 73.57655435 -10.75097656 82.16113281 C-9.76097656 81.33613281 -8.77097656 80.51113281 -7.75097656 79.66113281 C-7.10006042 79.12110626 -6.44914429 78.58107971 -5.77850342 78.02468872 C-3.69944441 76.2143361 -3.69944441 76.2143361 -2.06573486 74.01412964 C0.87278799 70.38131344 2.97167168 68.43219324 7.62658691 67.44439697 C11.84029986 67.17214601 15.98373843 67.15656881 20.20214844 67.23144531 C21.75055978 67.22900094 23.29896934 67.2227426 24.84735107 67.21286011 C28.90370636 67.19582414 32.95838466 67.22451224 37.01452637 67.26483154 C43.5189431 67.3205983 50.02370382 67.30151932 56.52828217 67.29156113 C58.79524795 67.29391223 61.06158097 67.31282347 63.32843018 67.33499146 C64.71765053 67.34119431 66.1068717 67.34721605 67.49609375 67.35302734 C69.31188934 67.3692363 69.31188934 67.3692363 71.16436768 67.38577271 C74.14399241 67.16878169 75.79820078 66.82396634 78.24902344 65.16113281 C79.52319918 62.61278133 79.396877 60.78598914 79.42602539 57.93286133 C79.43886063 56.84155411 79.45169586 55.75024689 79.46492004 54.62586975 C79.47230698 53.44254562 79.47969391 52.2592215 79.48730469 51.04003906 C79.49941231 49.22378273 79.49941231 49.22378273 79.51176453 47.37083435 C79.52561235 44.8060754 79.53633136 42.24129797 79.54418945 39.67651367 C79.56143719 35.74330076 79.60532279 31.81092057 79.64941406 27.87792969 C79.65953747 25.39030568 79.66805467 22.90267451 79.67480469 20.41503906 C79.70106682 18.64308922 79.70106682 18.64308922 79.7278595 16.83534241 C79.72493393 15.74088303 79.72200836 14.64642365 79.71899414 13.51879883 C79.7277935 12.07223656 79.7277935 12.07223656 79.73677063 10.59645081 C79.43908819 8.08911281 79.43908819 8.08911281 77.71452332 6.35153198 C74.27989576 4.69321602 71.0658761 4.73454562 67.33105469 4.75708008 C66.53710297 4.75021683 65.74315125 4.74335358 64.92514038 4.73628235 C62.30375224 4.71799808 59.68296159 4.72185366 57.06152344 4.72753906 C55.23836065 4.72297839 53.41519958 4.71767316 51.59204102 4.71165466 C47.7722271 4.70272064 43.95262222 4.7051504 40.1328125 4.71508789 C35.2365091 4.72658443 30.34092615 4.70635726 25.44471741 4.67717075 C21.68033258 4.65883089 17.91612116 4.65909666 14.15170288 4.66480827 C12.34637439 4.66496173 10.54103433 4.65889768 8.73574829 4.6465168 C6.2123686 4.63164817 3.69032974 4.64225206 1.16699219 4.65942383 C0.04784927 4.64492188 0.04784927 4.64492188 -1.09390259 4.63012695 C-4.36297075 4.67674064 -6.44408118 4.96402329 -9.21746826 6.74528503 Z " fill="#C8DDF5" transform="translate(318.7509765625,33.8388671875)"/>
<path d="M0 0 C3.35687807 1.56364745 5.14767696 3.87648327 7.375 6.8125 C8.74179371 11.59627797 8.47133172 15.63837504 6.875 20.25 C4.47414901 23.77124813 2.91271318 25.21525364 -1 27 C-6.37665908 27.7139737 -11.16862199 27.93437653 -16.0625 25.4375 C-19.31419501 21.34665789 -20.8012139 17.61868685 -21.4375 12.4375 C-20.81944445 7.58134923 -18.78641734 4.68227642 -15.2578125 1.359375 C-10.69085973 -1.39027822 -5.12652328 -0.687782 0 0 Z " fill="#CFE5FB" transform="translate(390,163)"/>
<path d="M0 0 C1.06367294 0.00222061 2.12734589 0.00444122 3.22325134 0.00672913 C5.02500572 0.00684242 5.02500572 0.00684242 6.86315918 0.00695801 C8.17042465 0.01211929 9.47769012 0.01728058 10.8245697 0.02259827 C12.16835477 0.02446253 13.51214052 0.02588639 14.85592651 0.02688599 C18.39873622 0.0307105 21.94150515 0.0405402 25.48429871 0.05158997 C29.09706572 0.06180552 32.7098393 0.06638392 36.32261658 0.07142639 C43.41573225 0.08216254 50.50882019 0.09923816 57.60191345 0.12025452 C58.16441345 2.05775452 58.16441345 2.05775452 58.60191345 4.12025452 C57.60191345 5.12025452 57.60191345 5.12025452 55.2038269 5.24050903 C54.14015396 5.23828842 53.07648102 5.23606781 51.98057556 5.23377991 C50.77940598 5.23370438 49.57823639 5.23362885 48.34066772 5.23355103 C47.03340225 5.22838974 45.72613678 5.22322845 44.3792572 5.21791077 C43.03547213 5.2160465 41.69168638 5.21462264 40.34790039 5.21362305 C36.80509069 5.20979853 33.26232175 5.19996883 29.7195282 5.18891907 C26.10676119 5.17870351 22.49398761 5.17412512 18.88121033 5.16908264 C11.78809465 5.1583465 4.69500671 5.14127088 -2.39808655 5.12025452 C-2.96058655 3.18275452 -2.96058655 3.18275452 -3.39808655 1.12025452 C-2.39808655 0.12025452 -2.39808655 0.12025452 0 0 Z " fill="#C4D8F1" transform="translate(325.39808654785156,66.87974548339844)"/>
<path d="M0 0 C1.06367294 0.00222061 2.12734589 0.00444122 3.22325134 0.00672913 C5.02500572 0.00684242 5.02500572 0.00684242 6.86315918 0.00695801 C8.17042465 0.01211929 9.47769012 0.01728058 10.8245697 0.02259827 C12.16835477 0.02446253 13.51214052 0.02588639 14.85592651 0.02688599 C18.39873622 0.0307105 21.94150515 0.0405402 25.48429871 0.05158997 C29.09706572 0.06180552 32.7098393 0.06638392 36.32261658 0.07142639 C43.41573225 0.08216254 50.50882019 0.09923816 57.60191345 0.12025452 C58.16441345 2.05775452 58.16441345 2.05775452 58.60191345 4.12025452 C57.60191345 5.12025452 57.60191345 5.12025452 55.2038269 5.24050903 C54.14015396 5.23828842 53.07648102 5.23606781 51.98057556 5.23377991 C50.77940598 5.23370438 49.57823639 5.23362885 48.34066772 5.23355103 C47.03340225 5.22838974 45.72613678 5.22322845 44.3792572 5.21791077 C43.03547213 5.2160465 41.69168638 5.21462264 40.34790039 5.21362305 C36.80509069 5.20979853 33.26232175 5.19996883 29.7195282 5.18891907 C26.10676119 5.17870351 22.49398761 5.17412512 18.88121033 5.16908264 C11.78809465 5.1583465 4.69500671 5.14127088 -2.39808655 5.12025452 C-2.96058655 3.18275452 -2.96058655 3.18275452 -3.39808655 1.12025452 C-2.39808655 0.12025452 -2.39808655 0.12025452 0 0 Z " fill="#C9DDF5" transform="translate(325.39808654785156,52.87974548339844)"/>
<path d="M0 0 C19.8 0 39.6 0 60 0 C60.495 1.98 60.495 1.98 61 4 C59.25912374 5.74087626 56.86965834 5.12758322 54.50219727 5.12939453 C52.74015709 5.13412277 52.74015709 5.13412277 50.94252014 5.13894653 C49.66340256 5.1369223 48.38428497 5.13489807 47.06640625 5.1328125 C45.76299789 5.13376923 44.45958954 5.13472595 43.11668396 5.13571167 C40.35341207 5.13718851 37.59017244 5.1350349 34.8269043 5.13037109 C31.28137163 5.12467938 27.73591474 5.12794934 24.19038486 5.13394356 C20.81571922 5.13842292 17.44107405 5.13528775 14.06640625 5.1328125 C12.7893129 5.13483673 11.51221954 5.13686096 10.19642639 5.13894653 C9.01858078 5.13579437 7.84073517 5.13264221 6.62719727 5.12939453 C5.58652603 5.12859894 4.5458548 5.12780334 3.47364807 5.12698364 C1 5 1 5 -1 4 C-0.67 2.68 -0.34 1.36 0 0 Z " fill="#C4D9F1" transform="translate(323,82)"/>
<path d="M0 0 C0.74507812 0.01353516 1.49015625 0.02707031 2.2578125 0.04101562 C4.08885416 0.07622796 5.91952169 0.13003149 7.75 0.1875 C7.984375 6.828125 7.984375 6.828125 5.875 10.0625 C2.6671284 13.2703716 0.75210285 13.36674936 -3.6875 13.4375 C-5.13962891 13.47617188 -5.13962891 13.47617188 -6.62109375 13.515625 C-9.25 13.1875 -9.25 13.1875 -11.0703125 11.890625 C-13.06636895 9.00890112 -12.67156474 6.56001791 -12.25 3.1875 C-8.85338801 -0.64795075 -4.75281149 -0.16374527 0 0 Z " fill="#242759" transform="translate(207.25,161.8125)"/>
</svg>
